<?xml version="1.0" encoding="UTF-8"?>
<svg xmlns="http://www.w3.org/2000/svg" xmlns:xlink="http://www.w3.org/1999/xlink" width="780px" height="680px" viewBox="0 0 1360 680" version="1.1">
<g id="surface1">
<path style=" stroke:none;fill-rule:nonzero;fill:rgb(0%,0%,0%);fill-opacity:1;" d="M 535.070312 293.535156 L 493.339844 293.535156 L 493.339844 268.621094 L 605.085938 268.621094 L 605.085938 293.535156 L 563.355469 293.535156 L 563.355469 418.199219 L 535.082031 418.199219 Z M 630.835938 397.84375 C 642.167969 397.789062 653.433594 396.054688 664.269531 392.6875 L 668.574219 413.316406 C 655.710938 418.03125 642.121094 420.453125 628.421875 420.476562 C 594.058594 420.476562 582.183594 404.613281 582.183594 378.316406 L 582.183594 349.691406 C 582.183594 326.570312 592.382812 306.625 627.492188 306.625 C 662.601562 306.625 670.558594 327.023438 670.558594 350.574219 L 670.558594 373.921875 L 609.699219 373.921875 L 609.699219 379.507812 C 609.699219 392.609375 614.234375 397.640625 630.960938 397.640625 Z M 609.359375 351.832031 L 644.152344 351.832031 L 644.152344 346.460938 C 644.152344 336.261719 641.003906 329.007812 627.550781 329.007812 C 614.097656 329.007812 609.371094 336.167969 609.371094 346.460938 Z M 609.359375 351.832031 "/>
<path style=" stroke:none;fill-rule:nonzero;fill:rgb(0%,0%,0%);fill-opacity:1;" d="M 743.523438 331.589844 C 733.585938 336.167969 724.007812 341.507812 714.894531 347.570312 L 714.894531 418.007812 L 687.195312 418.007812 L 687.195312 308.699219 L 710.316406 308.699219 L 712.105469 320.789062 C 720.980469 314.785156 730.605469 309.972656 740.734375 306.476562 Z M 743.523438 331.589844 "/>
<path style=" stroke:none;fill-rule:nonzero;fill:rgb(0%,0%,0%);fill-opacity:1;" d="M 810.378906 331.589844 C 800.4375 336.167969 790.863281 341.507812 781.75 347.570312 L 781.75 418.007812 L 754.050781 418.007812 L 754.050781 308.699219 L 777.171875 308.699219 L 778.960938 320.789062 C 787.835938 314.785156 797.460938 309.972656 807.589844 306.476562 Z M 810.378906 331.589844 "/>
<path style=" stroke:none;fill-rule:nonzero;fill:rgb(0%,0%,0%);fill-opacity:1;" d="M 901.871094 417.917969 L 879.464844 417.917969 L 877.460938 410.753906 C 867.78125 417.039062 856.496094 420.394531 844.957031 420.421875 C 824.988281 420.421875 816.328125 406.753906 816.328125 387.917969 C 816.328125 365.726562 825.996094 357.316406 848.0625 357.316406 L 874.332031 357.316406 L 874.332031 345.984375 C 874.332031 333.890625 870.964844 329.597656 853.503906 329.597656 C 843.320312 329.707031 833.175781 330.832031 823.21875 332.960938 L 819.851562 312.132812 C 832.046875 308.757812 844.636719 307.023438 857.289062 306.976562 C 891.648438 306.976562 901.738281 319.066406 901.738281 346.492188 Z M 874.523438 376.617188 L 854.351562 376.617188 C 845.285156 376.617188 843.019531 379.054688 843.019531 387.351562 C 843.019531 395.648438 845.457031 398.378906 854.046875 398.378906 C 861.277344 398.28125 868.371094 396.359375 874.660156 392.789062 Z M 986.046875 283.683594 C 980.890625 282.578125 975.640625 281.980469 970.371094 281.894531 C 959.636719 281.894531 958.0625 286.621094 958.0625 294.925781 L 958.0625 308.59375 L 985.828125 308.59375 L 984.242188 330.070312 L 957.972656 330.070312 L 957.972656 417.542969 L 930.625 417.542969 L 930.625 330.480469 L 913.09375 330.480469 L 913.09375 309.003906 L 930.546875 309.003906 L 930.546875 293.476562 C 930.546875 270.789062 941.0625 259.613281 965.339844 259.613281 C 973.296875 259.578125 981.222656 260.636719 988.890625 262.761719 Z M 1039.449219 420.09375 C 1002.015625 420.09375 991.914062 399.464844 991.914062 377.027344 L 991.914062 349.632812 C 991.914062 327.226562 1002.117188 306.566406 1039.449219 306.566406 C 1076.78125 306.566406 1087.046875 327.191406 1087.046875 349.632812 L 1087.046875 377.265625 C 1086.980469 399.523438 1076.882812 420.332031 1039.449219 420.332031 Z M 1039.449219 329.6875 C 1025.132812 329.6875 1019.273438 336.203125 1019.273438 348.5 L 1019.273438 377.921875 C 1019.273438 390.230469 1024.863281 396.734375 1039.449219 396.734375 C 1054.035156 396.734375 1059.621094 390.21875 1059.621094 377.921875 L 1059.621094 348.613281 C 1059.621094 336.226562 1053.953125 329.71875 1039.449219 329.71875 Z M 1157.316406 331.476562 C 1147.371094 336.054688 1137.800781 341.398438 1128.6875 347.457031 L 1128.6875 417.894531 L 1101.035156 417.894531 L 1101.035156 308.585938 L 1124.152344 308.585938 L 1125.945312 320.675781 C 1134.820312 314.671875 1144.445312 309.859375 1154.570312 306.363281 Z M 1232.566406 417.917969 L 1232.566406 341.675781 C 1232.566406 335.875 1230.132812 332.949219 1223.839844 332.949219 C 1213.777344 334.085938 1204.03125 337.210938 1195.214844 342.1875 L 1195.214844 418.121094 L 1168.011719 418.121094 L 1168.011719 308.8125 L 1188.84375 308.8125 L 1191.5625 318.046875 C 1205.1875 311.222656 1220.089844 307.324219 1235.3125 306.601562 C 1243.949219 305.796875 1252.171875 310.453125 1255.925781 318.273438 C 1269.570312 311.292969 1284.566406 307.316406 1299.875 306.601562 C 1318.054688 306.601562 1324.582031 319.40625 1324.582031 338.902344 L 1324.582031 418.074219 L 1297.234375 418.074219 L 1297.234375 341.835938 C 1297.234375 336.035156 1294.800781 333.109375 1288.507812 333.109375 C 1278.425781 334.152344 1268.671875 337.296875 1259.882812 342.347656 L 1259.882812 418.28125 Z M 1232.566406 417.917969 "/>
<path style=" stroke:none;fill-rule:evenodd;fill:rgb(36.078431%,30.588235%,89.803922%);fill-opacity:1;" d="M 313.496094 429.917969 L 313.496094 428.921875 L 181.6875 352.800781 L 181.6875 504.976562 L 313.496094 581.097656 Z M 313.496094 259.988281 L 313.496094 412.226562 L 181.6875 336.109375 L 181.6875 183.871094 Z M 313.496094 259.988281 "/>
<path style=" stroke:none;fill-rule:evenodd;fill:rgb(25.098039%,25.098039%,69.803922%);fill-opacity:1;" d="M 327.945312 412.226562 L 459.816406 336.109375 L 459.816406 183.871094 L 327.945312 259.988281 Z M 327.945312 412.226562 "/>
<path style=" stroke:none;fill-rule:evenodd;fill:rgb(36.078431%,30.588235%,89.803922%);fill-opacity:1;" d="M 35.429688 251.144531 L 167.238281 327.261719 L 167.238281 175.023438 L 35.429688 98.90625 Z M 35.429688 251.144531 "/>
</g>
</svg>
